<svg width="89" height="87" viewBox="0 0 89 87" fill="none" xmlns="http://www.w3.org/2000/svg">
<g opacity="0.3">
<mask id="mask0_1_11" style="mask-type:alpha" maskUnits="userSpaceOnUse" x="3" y="9" width="8" height="8">
<path d="M6.90962 16.9773C9.06885 16.9773 10.8193 15.1915 10.8193 12.9886C10.8193 10.7858 9.06885 9 6.90962 9C4.7504 9 3 10.7858 3 12.9886C3 15.1915 4.7504 16.9773 6.90962 16.9773Z" fill="url(#paint0_linear_1_11)"/>
</mask>
<g mask="url(#mask0_1_11)">
<path d="M6.90962 16.9773C9.06885 16.9773 10.8193 15.1915 10.8193 12.9886C10.8193 10.7858 9.06885 9 6.90962 9C4.7504 9 3 10.7858 3 12.9886C3 15.1915 4.7504 16.9773 6.90962 16.9773Z" fill="url(#paint1_linear_1_11)"/>
</g>
<mask id="mask1_1_11" style="mask-type:alpha" maskUnits="userSpaceOnUse" x="25" y="9" width="9" height="8">
<path d="M29.5525 16.9773C31.7117 16.9773 33.4621 15.1915 33.4621 12.9886C33.4621 10.7858 31.7117 9 29.5525 9C27.3932 9 25.6428 10.7858 25.6428 12.9886C25.6428 15.1915 27.3932 16.9773 29.5525 16.9773Z" fill="url(#paint2_linear_1_11)"/>
</mask>
<g mask="url(#mask1_1_11)">
<path d="M29.5528 16.9773C31.712 16.9773 33.4625 15.1915 33.4625 12.9886C33.4625 10.7858 31.712 9 29.5528 9C27.3936 9 25.6432 10.7858 25.6432 12.9886C25.6432 15.1915 27.3936 16.9773 29.5528 16.9773Z" fill="url(#paint3_linear_1_11)"/>
</g>
<mask id="mask2_1_11" style="mask-type:alpha" maskUnits="userSpaceOnUse" x="48" y="9" width="9" height="8">
<path d="M52.1953 16.9773C54.3546 16.9773 56.105 15.1915 56.105 12.9886C56.105 10.7858 54.3546 9 52.1953 9C50.0361 9 48.2857 10.7858 48.2857 12.9886C48.2857 15.1915 50.0361 16.9773 52.1953 16.9773Z" fill="url(#paint4_linear_1_11)"/>
</mask>
<g mask="url(#mask2_1_11)">
<path d="M52.196 16.9773C54.3552 16.9773 56.1056 15.1915 56.1056 12.9886C56.1056 10.7858 54.3552 9 52.196 9C50.0368 9 48.2864 10.7858 48.2864 12.9886C48.2864 15.1915 50.0368 16.9773 52.196 16.9773Z" fill="url(#paint5_linear_1_11)"/>
</g>
<mask id="mask3_1_11" style="mask-type:alpha" maskUnits="userSpaceOnUse" x="70" y="9" width="9" height="8">
<path d="M74.8381 16.9773C76.9973 16.9773 78.7477 15.1915 78.7477 12.9886C78.7477 10.7858 76.9973 9 74.8381 9C72.6789 9 70.9285 10.7858 70.9285 12.9886C70.9285 15.1915 72.6789 16.9773 74.8381 16.9773Z" fill="url(#paint6_linear_1_11)"/>
</mask>
<g mask="url(#mask3_1_11)">
<path d="M74.8387 16.9773C76.9979 16.9773 78.7483 15.1915 78.7483 12.9886C78.7483 10.7858 76.9979 9 74.8387 9C72.6795 9 70.9291 10.7858 70.9291 12.9886C70.9291 15.1915 72.6795 16.9773 74.8387 16.9773Z" fill="url(#paint7_linear_1_11)"/>
</g>
<mask id="mask4_1_11" style="mask-type:alpha" maskUnits="userSpaceOnUse" x="3" y="29" width="8" height="9">
<path d="M6.90962 37.0037C9.06885 37.0037 10.8193 35.2179 10.8193 33.015C10.8193 30.8122 9.06885 29.0264 6.90962 29.0264C4.7504 29.0264 3 30.8122 3 33.015C3 35.2179 4.7504 37.0037 6.90962 37.0037Z" fill="url(#paint8_linear_1_11)"/>
</mask>
<g mask="url(#mask4_1_11)">
<path d="M6.90962 37.0037C9.06885 37.0037 10.8193 35.218 10.8193 33.0151C10.8193 30.8122 9.06885 29.0265 6.90962 29.0265C4.7504 29.0265 3 30.8122 3 33.0151C3 35.218 4.7504 37.0037 6.90962 37.0037Z" fill="url(#paint9_linear_1_11)"/>
</g>
<mask id="mask5_1_11" style="mask-type:alpha" maskUnits="userSpaceOnUse" x="25" y="29" width="9" height="9">
<path d="M29.5525 37.0038C31.7117 37.0038 33.4621 35.218 33.4621 33.0151C33.4621 30.8123 31.7117 29.0265 29.5525 29.0265C27.3932 29.0265 25.6428 30.8123 25.6428 33.0151C25.6428 35.218 27.3932 37.0038 29.5525 37.0038Z" fill="url(#paint10_linear_1_11)"/>
</mask>
<g mask="url(#mask5_1_11)">
<path d="M29.5528 37.0037C31.712 37.0037 33.4625 35.2179 33.4625 33.0151C33.4625 30.8122 31.712 29.0264 29.5528 29.0264C27.3936 29.0264 25.6432 30.8122 25.6432 33.0151C25.6432 35.2179 27.3936 37.0037 29.5528 37.0037Z" fill="url(#paint11_linear_1_11)"/>
</g>
<mask id="mask6_1_11" style="mask-type:alpha" maskUnits="userSpaceOnUse" x="48" y="29" width="9" height="9">
<path d="M52.1953 37.0038C54.3546 37.0038 56.105 35.218 56.105 33.0151C56.105 30.8123 54.3546 29.0265 52.1953 29.0265C50.0361 29.0265 48.2857 30.8123 48.2857 33.0151C48.2857 35.218 50.0361 37.0038 52.1953 37.0038Z" fill="url(#paint12_linear_1_11)"/>
</mask>
<g mask="url(#mask6_1_11)">
<path d="M52.196 37.0037C54.3552 37.0037 56.1056 35.2179 56.1056 33.0151C56.1056 30.8122 54.3552 29.0264 52.196 29.0264C50.0368 29.0264 48.2864 30.8122 48.2864 33.0151C48.2864 35.2179 50.0368 37.0037 52.196 37.0037Z" fill="url(#paint13_linear_1_11)"/>
</g>
<mask id="mask7_1_11" style="mask-type:alpha" maskUnits="userSpaceOnUse" x="70" y="29" width="9" height="9">
<path d="M74.8381 37.0038C76.9973 37.0038 78.7477 35.218 78.7477 33.0151C78.7477 30.8123 76.9973 29.0265 74.8381 29.0265C72.6789 29.0265 70.9285 30.8123 70.9285 33.0151C70.9285 35.218 72.6789 37.0038 74.8381 37.0038Z" fill="url(#paint14_linear_1_11)"/>
</mask>
<g mask="url(#mask7_1_11)">
<path d="M74.8387 37.0037C76.9979 37.0037 78.7483 35.2179 78.7483 33.0151C78.7483 30.8122 76.9979 29.0264 74.8387 29.0264C72.6795 29.0264 70.9291 30.8122 70.9291 33.0151C70.9291 35.2179 72.6795 37.0037 74.8387 37.0037Z" fill="url(#paint15_linear_1_11)"/>
</g>
<mask id="mask8_1_11" style="mask-type:alpha" maskUnits="userSpaceOnUse" x="3" y="49" width="8" height="8">
<path d="M6.90962 56.9887C9.06885 56.9887 10.8193 55.2029 10.8193 53C10.8193 50.7971 9.06885 49.0113 6.90962 49.0113C4.7504 49.0113 3 50.7971 3 53C3 55.2029 4.7504 56.9887 6.90962 56.9887Z" fill="url(#paint16_linear_1_11)"/>
</mask>
<g mask="url(#mask8_1_11)">
<path d="M6.90962 56.9888C9.06885 56.9888 10.8193 55.203 10.8193 53.0001C10.8193 50.7972 9.06885 49.0114 6.90962 49.0114C4.7504 49.0114 3 50.7972 3 53.0001C3 55.203 4.7504 56.9888 6.90962 56.9888Z" fill="url(#paint17_linear_1_11)"/>
</g>
<mask id="mask9_1_11" style="mask-type:alpha" maskUnits="userSpaceOnUse" x="25" y="49" width="9" height="8">
<path d="M29.5525 56.9889C31.7117 56.9889 33.4621 55.2032 33.4621 53.0003C33.4621 50.7974 31.7117 49.0116 29.5525 49.0116C27.3932 49.0116 25.6428 50.7974 25.6428 53.0003C25.6428 55.2032 27.3932 56.9889 29.5525 56.9889Z" fill="url(#paint18_linear_1_11)"/>
</mask>
<g mask="url(#mask9_1_11)">
<path d="M29.5528 56.9888C31.712 56.9888 33.4625 55.203 33.4625 53.0001C33.4625 50.7972 31.712 49.0114 29.5528 49.0114C27.3936 49.0114 25.6432 50.7972 25.6432 53.0001C25.6432 55.203 27.3936 56.9888 29.5528 56.9888Z" fill="url(#paint19_linear_1_11)"/>
</g>
<mask id="mask10_1_11" style="mask-type:alpha" maskUnits="userSpaceOnUse" x="0" y="0" width="100" height="100">
<path d="M52.1953 56.9889C54.3546 56.9889 56.105 55.2032 56.105 53.0003C56.105 50.7974 54.3546 49.0116 52.1953 49.0116C50.0361 49.0116 48.2857 50.7974 48.2857 53.0003C48.2857 55.2032 50.0361 56.9889 52.1953 56.9889Z" fill="url(#paint20_linear_1_11)"/>
</mask>
<g mask="url(#mask10_1_11)">
<path d="M52.196 56.9888C54.3552 56.9888 56.1056 55.203 56.1056 53.0001C56.1056 50.7972 54.3552 49.0114 52.196 49.0114C50.0368 49.0114 48.2864 50.7972 48.2864 53.0001C48.2864 55.203 50.0368 56.9888 52.196 56.9888Z" fill="url(#paint21_linear_1_11)"/>
</g>
<mask id="mask11_1_11" style="mask-type:alpha" maskUnits="userSpaceOnUse" x="70" y="49" width="9" height="8">
<path d="M74.8381 56.9889C76.9973 56.9889 78.7477 55.2032 78.7477 53.0003C78.7477 50.7974 76.9973 49.0116 74.8381 49.0116C72.6789 49.0116 70.9285 50.7974 70.9285 53.0003C70.9285 55.2032 72.6789 56.9889 74.8381 56.9889Z" fill="url(#paint22_linear_1_11)"/>
</mask>
<g mask="url(#mask11_1_11)">
<path d="M74.8387 56.9888C76.9979 56.9888 78.7483 55.203 78.7483 53.0001C78.7483 50.7972 76.9979 49.0114 74.8387 49.0114C72.6795 49.0114 70.9291 50.7972 70.9291 53.0001C70.9291 55.203 72.6795 56.9888 74.8387 56.9888Z" fill="url(#paint23_linear_1_11)"/>
</g>
<mask id="mask12_1_11" style="mask-type:alpha" maskUnits="userSpaceOnUse" x="3" y="69" width="8" height="9">
<path d="M6.90962 77.0154C9.06885 77.0154 10.8193 75.2296 10.8193 73.0267C10.8193 70.8239 9.06885 69.0381 6.90962 69.0381C4.7504 69.0381 3 70.8239 3 73.0267C3 75.2296 4.7504 77.0154 6.90962 77.0154Z" fill="url(#paint24_linear_1_11)"/>
</mask>
<g mask="url(#mask12_1_11)">
<path d="M6.90962 77.0152C9.06885 77.0152 10.8193 75.2294 10.8193 73.0265C10.8193 70.8236 9.06885 69.0378 6.90962 69.0378C4.7504 69.0378 3 70.8236 3 73.0265C3 75.2294 4.7504 77.0152 6.90962 77.0152Z" fill="url(#paint25_linear_1_11)"/>
</g>
<mask id="mask13_1_11" style="mask-type:alpha" maskUnits="userSpaceOnUse" x="25" y="69" width="9" height="9">
<path d="M29.5525 77.0154C31.7117 77.0154 33.4621 75.2296 33.4621 73.0267C33.4621 70.8239 31.7117 69.0381 29.5525 69.0381C27.3932 69.0381 25.6428 70.8239 25.6428 73.0267C25.6428 75.2296 27.3932 77.0154 29.5525 77.0154Z" fill="url(#paint26_linear_1_11)"/>
</mask>
<g mask="url(#mask13_1_11)">
<path d="M29.5528 77.0152C31.712 77.0152 33.4625 75.2294 33.4625 73.0265C33.4625 70.8236 31.712 69.0378 29.5528 69.0378C27.3936 69.0378 25.6432 70.8236 25.6432 73.0265C25.6432 75.2294 27.3936 77.0152 29.5528 77.0152Z" fill="url(#paint27_linear_1_11)"/>
</g>
<mask id="mask14_1_11" style="mask-type:alpha" maskUnits="userSpaceOnUse" x="48" y="69" width="9" height="9">
<path d="M52.1953 77.0154C54.3546 77.0154 56.105 75.2296 56.105 73.0267C56.105 70.8239 54.3546 69.0381 52.1953 69.0381C50.0361 69.0381 48.2857 70.8239 48.2857 73.0267C48.2857 75.2296 50.0361 77.0154 52.1953 77.0154Z" fill="url(#paint28_linear_1_11)"/>
</mask>
<g mask="url(#mask14_1_11)">
<path d="M52.196 77.0152C54.3552 77.0152 56.1056 75.2294 56.1056 73.0265C56.1056 70.8236 54.3552 69.0378 52.196 69.0378C50.0368 69.0378 48.2864 70.8236 48.2864 73.0265C48.2864 75.2294 50.0368 77.0152 52.196 77.0152Z" fill="url(#paint29_linear_1_11)"/>
</g>
<mask id="mask15_1_11" style="mask-type:alpha" maskUnits="userSpaceOnUse" x="70" y="69" width="9" height="9">
<path d="M74.8381 77.0154C76.9973 77.0154 78.7477 75.2296 78.7477 73.0267C78.7477 70.8239 76.9973 69.0381 74.8381 69.0381C72.6789 69.0381 70.9285 70.8239 70.9285 73.0267C70.9285 75.2296 72.6789 77.0154 74.8381 77.0154Z" fill="url(#paint30_linear_1_11)"/>
</mask>
<g mask="url(#mask15_1_11)">
<path d="M74.8387 77.0152C76.9979 77.0152 78.7483 75.2294 78.7483 73.0265C78.7483 70.8236 76.9979 69.0378 74.8387 69.0378C72.6795 69.0378 70.9291 70.8236 70.9291 73.0265C70.9291 75.2294 72.6795 77.0152 74.8387 77.0152Z" fill="url(#paint31_linear_1_11)"/>
</g>
</g>
<defs>
<linearGradient id="paint0_linear_1_11" x1="41.076" y1="101.471" x2="-14.486" y2="-36.7764" gradientUnits="userSpaceOnUse">
<stop stop-color="#FFA434"/>
<stop offset="1" stop-color="#FFA434"/>
</linearGradient>
<linearGradient id="paint1_linear_1_11" x1="41.076" y1="101.471" x2="-14.486" y2="-36.7764" gradientUnits="userSpaceOnUse">
<stop stop-color="#FFA434"/>
<stop offset="1" stop-color="#FFA434"/>
</linearGradient>
<linearGradient id="paint2_linear_1_11" x1="63.7188" y1="101.471" x2="8.15687" y2="-36.7764" gradientUnits="userSpaceOnUse">
<stop stop-color="#FFA434"/>
<stop offset="1" stop-color="#FFA434"/>
</linearGradient>
<linearGradient id="paint3_linear_1_11" x1="63.7192" y1="101.471" x2="8.15724" y2="-36.7764" gradientUnits="userSpaceOnUse">
<stop stop-color="#FFA434"/>
<stop offset="1" stop-color="#FFA434"/>
</linearGradient>
<linearGradient id="paint4_linear_1_11" x1="86.3617" y1="101.471" x2="30.7998" y2="-36.7764" gradientUnits="userSpaceOnUse">
<stop stop-color="#FFA434"/>
<stop offset="1" stop-color="#FFA434"/>
</linearGradient>
<linearGradient id="paint5_linear_1_11" x1="86.3624" y1="101.471" x2="30.8004" y2="-36.7764" gradientUnits="userSpaceOnUse">
<stop stop-color="#FFA434"/>
<stop offset="1" stop-color="#FFA434"/>
</linearGradient>
<linearGradient id="paint6_linear_1_11" x1="109.004" y1="101.471" x2="53.4425" y2="-36.7764" gradientUnits="userSpaceOnUse">
<stop stop-color="#FFA434"/>
<stop offset="1" stop-color="#FFA434"/>
</linearGradient>
<linearGradient id="paint7_linear_1_11" x1="109.005" y1="101.471" x2="53.4431" y2="-36.7764" gradientUnits="userSpaceOnUse">
<stop stop-color="#FFA434"/>
<stop offset="1" stop-color="#FFA434"/>
</linearGradient>
<linearGradient id="paint8_linear_1_11" x1="41.076" y1="121.496" x2="-14.4851" y2="-16.7499" gradientUnits="userSpaceOnUse">
<stop stop-color="#FFA434"/>
<stop offset="1" stop-color="#FFA434"/>
</linearGradient>
<linearGradient id="paint9_linear_1_11" x1="41.076" y1="121.496" x2="-14.4851" y2="-16.7499" gradientUnits="userSpaceOnUse">
<stop stop-color="#FFA434"/>
<stop offset="1" stop-color="#FFA434"/>
</linearGradient>
<linearGradient id="paint10_linear_1_11" x1="63.7188" y1="121.496" x2="8.15782" y2="-16.7499" gradientUnits="userSpaceOnUse">
<stop stop-color="#FFA434"/>
<stop offset="1" stop-color="#FFA434"/>
</linearGradient>
<linearGradient id="paint11_linear_1_11" x1="63.7192" y1="121.496" x2="8.15818" y2="-16.7499" gradientUnits="userSpaceOnUse">
<stop stop-color="#FFA434"/>
<stop offset="1" stop-color="#FFA434"/>
</linearGradient>
<linearGradient id="paint12_linear_1_11" x1="86.3617" y1="121.496" x2="30.8007" y2="-16.7499" gradientUnits="userSpaceOnUse">
<stop stop-color="#FFA434"/>
<stop offset="1" stop-color="#FFA434"/>
</linearGradient>
<linearGradient id="paint13_linear_1_11" x1="86.3624" y1="121.496" x2="30.8014" y2="-16.7499" gradientUnits="userSpaceOnUse">
<stop stop-color="#FFA434"/>
<stop offset="1" stop-color="#FFA434"/>
</linearGradient>
<linearGradient id="paint14_linear_1_11" x1="109.004" y1="121.496" x2="53.4435" y2="-16.7499" gradientUnits="userSpaceOnUse">
<stop stop-color="#FFA434"/>
<stop offset="1" stop-color="#FFA434"/>
</linearGradient>
<linearGradient id="paint15_linear_1_11" x1="109.005" y1="121.496" x2="53.4441" y2="-16.7499" gradientUnits="userSpaceOnUse">
<stop stop-color="#FFA434"/>
<stop offset="1" stop-color="#FFA434"/>
</linearGradient>
<linearGradient id="paint16_linear_1_11" x1="41.076" y1="141.482" x2="-14.486" y2="3.23493" gradientUnits="userSpaceOnUse">
<stop stop-color="#FFA434"/>
<stop offset="1" stop-color="#FFA434"/>
</linearGradient>
<linearGradient id="paint17_linear_1_11" x1="41.076" y1="141.482" x2="-14.486" y2="3.23502" gradientUnits="userSpaceOnUse">
<stop stop-color="#FFA434"/>
<stop offset="1" stop-color="#FFA434"/>
</linearGradient>
<linearGradient id="paint18_linear_1_11" x1="63.7188" y1="141.482" x2="8.15687" y2="3.23516" gradientUnits="userSpaceOnUse">
<stop stop-color="#FFA434"/>
<stop offset="1" stop-color="#FFA434"/>
</linearGradient>
<linearGradient id="paint19_linear_1_11" x1="63.7192" y1="141.482" x2="8.15724" y2="3.23498" gradientUnits="userSpaceOnUse">
<stop stop-color="#FFA434"/>
<stop offset="1" stop-color="#FFA434"/>
</linearGradient>
<linearGradient id="paint20_linear_1_11" x1="86.3617" y1="141.482" x2="30.7998" y2="3.23516" gradientUnits="userSpaceOnUse">
<stop stop-color="#FFA434"/>
<stop offset="1" stop-color="#FFA434"/>
</linearGradient>
<linearGradient id="paint21_linear_1_11" x1="86.3624" y1="141.482" x2="30.8004" y2="3.23498" gradientUnits="userSpaceOnUse">
<stop stop-color="#FFA434"/>
<stop offset="1" stop-color="#FFA434"/>
</linearGradient>
<linearGradient id="paint22_linear_1_11" x1="109.004" y1="141.482" x2="53.4425" y2="3.23516" gradientUnits="userSpaceOnUse">
<stop stop-color="#FFA434"/>
<stop offset="1" stop-color="#FFA434"/>
</linearGradient>
<linearGradient id="paint23_linear_1_11" x1="109.005" y1="141.482" x2="53.4431" y2="3.23498" gradientUnits="userSpaceOnUse">
<stop stop-color="#FFA434"/>
<stop offset="1" stop-color="#FFA434"/>
</linearGradient>
<linearGradient id="paint24_linear_1_11" x1="41.076" y1="161.509" x2="-14.486" y2="23.2617" gradientUnits="userSpaceOnUse">
<stop stop-color="#FFA434"/>
<stop offset="1" stop-color="#FFA434"/>
</linearGradient>
<linearGradient id="paint25_linear_1_11" x1="41.076" y1="161.509" x2="-14.486" y2="23.2615" gradientUnits="userSpaceOnUse">
<stop stop-color="#FFA434"/>
<stop offset="1" stop-color="#FFA434"/>
</linearGradient>
<linearGradient id="paint26_linear_1_11" x1="63.7188" y1="161.509" x2="8.15687" y2="23.2616" gradientUnits="userSpaceOnUse">
<stop stop-color="#FFA434"/>
<stop offset="1" stop-color="#FFA434"/>
</linearGradient>
<linearGradient id="paint27_linear_1_11" x1="63.7192" y1="161.509" x2="8.15724" y2="23.2614" gradientUnits="userSpaceOnUse">
<stop stop-color="#FFA434"/>
<stop offset="1" stop-color="#FFA434"/>
</linearGradient>
<linearGradient id="paint28_linear_1_11" x1="86.3617" y1="161.509" x2="30.7998" y2="23.2616" gradientUnits="userSpaceOnUse">
<stop stop-color="#FFA434"/>
<stop offset="1" stop-color="#FFA434"/>
</linearGradient>
<linearGradient id="paint29_linear_1_11" x1="86.3624" y1="161.509" x2="30.8004" y2="23.2614" gradientUnits="userSpaceOnUse">
<stop stop-color="#FFA434"/>
<stop offset="1" stop-color="#FFA434"/>
</linearGradient>
<linearGradient id="paint30_linear_1_11" x1="109.004" y1="161.509" x2="53.4425" y2="23.2616" gradientUnits="userSpaceOnUse">
<stop stop-color="#FFA434"/>
<stop offset="1" stop-color="#FFA434"/>
</linearGradient>
<linearGradient id="paint31_linear_1_11" x1="109.005" y1="161.509" x2="53.4431" y2="23.2614" gradientUnits="userSpaceOnUse">
<stop stop-color="#FFA434"/>
<stop offset="1" stop-color="#FFA434"/>
</linearGradient>
</defs>
</svg>
